<svg xmlns="http://www.w3.org/2000/svg" version="1.1">
  <rect
     width="364.1373"
     height="91.659218"
     x="0"
     y="0.18899536"
     fill="blue"
     id="rect2" />
  <rect
     width="5.8586302"
     height="6.614583"
     x="183.60153"
     y="85.350998"
     fill="black"
     id="rect4" />
  <rect
     fill="black"
     width="23.62351"
     height="3.0238097"
     x="208.6946"
     y="67.941223"
     id="rect6" />
  <rect
     width="23.623512"
     height="3.0238097"
     x="229.22063"
     y="50.47142"
     fill="black"
     id="rect8" />
  <rect
     fill="black"
     width="6.0476193"
     height="5.8586311"
     x="269.73773"
     y="71.815475"
     id="rect10" />
  <rect
     fill="black"
     width="5.8586302"
     height="6.6145835"
     x="250.83894"
     y="85.139145"
     id="rect12" />
  <rect
     width="23.623512"
     height="3.0238097"
     x="297.9938"
     y="48.745132"
     fill="black"
     id="rect14" />
  <rect
     fill="black"
     width="6.0476193"
     height="30.049107"
     x="275.69086"
     y="61.70462"
     id="rect16" />
  <rect
     width="31.938988"
     height="3.0238097"
     x="332.99701"
     y="61.799103"
     fill="black"
     id="rect18" />
  <rect
     width="6.0476213"
     height="61.799107"
     x="358.88837"
     y="0"
     fill="black"
     id="rect20" />
  <rect
     width="12.095239"
     height="5.8586311"
     x="347.39444"
     y="34.278458"
     fill="black"
     id="rect22" />
  <rect
     fill="black"
     width="23.623512"
     height="3.0238097"
     x="64.040489"
     y="46.992493"
     id="rect24" />
  <rect
     fill="black"
     width="23.623512"
     height="3.0238097"
     x="143.99307"
     y="47.206192"
     id="rect26" />
  <rect
     fill="black"
     width="10.519648"
     height="11.805261"
     x="61.350082"
     y="79.944702"
     id="rect28" />
  <rect
     fill="black"
     width="23.623512"
     height="3.0238097"
     x="27.069626"
     y="65.187149"
     id="rect30" />
  <rect
     fill="black"
     width="6.0476193"
     height="30.049107"
     x="111.25559"
     y="61.659653"
     id="rect32" />
  <circle
     cx="6.4302673"
     cy="86.896393"
     r="4.7036037"
     fill="green"
     id="circle34" />
  <circle
     cx="105.60499"
     cy="87.046219"
     r="4.7036037"
     fill="red"
     id="circle36" />
  <rect
     width="5.8586302"
     height="6.614583"
     x="116.9077"
     y="72.353302"
     fill="black"
     id="rect38" />
  <circle
     cx="126.5785"
     cy="87.19603"
     r="4.7036037"
     fill="red"
     id="circle40" />
  <circle
     cx="201.18425"
     cy="25.17437"
     r="4.7036037"
     fill="red"
     id="circle42" />
  <rect
     fill="black"
     width="23.62351"
     height="3.0238097"
     x="189.52231"
     y="29.954521"
     id="rect44" />
  <circle
     cx="292.71863"
     cy="87.196014"
     r="4.7036037"
     fill="red"
     id="circle46" />
  <circle
     cx="353.09235"
     cy="29.518883"
     r="4.7036037"
     fill="red"
     id="circle48" />
  <circle
     cx="242.83165"
     cy="87.046219"
     r="4.7036037"
     fill="red"
     id="circle50" />
  <circle
     cx="215.41628"
     cy="62.62706"
     r="4.7036037"
     fill="red"
     id="circle52" />
</svg>
